<svg xmlns="http://www.w3.org/2000/svg" viewBox="0 0 1200 800"><defs><linearGradient id="s" x1="0" y1="0" x2="0" y2="1"><stop offset="0" stop-color="#DCEBF5"/><stop offset="1" stop-color="#F6E9DA"/></linearGradient></defs><rect width="1200" height="800" fill="url(#s)"/><rect x="60" y="250" width="50" height="180" fill="#006BB6" opacity="0.35"/><rect x="130" y="210" width="44" height="220" fill="#006BB6" opacity="0.35"/><rect x="980" y="230" width="56" height="200" fill="#006BB6" opacity="0.35"/><rect x="1060" y="190" width="44" height="240" fill="#006BB6" opacity="0.35"/><rect x="0" y="430" width="1200" height="370" fill="#C9D4DE"/><rect x="0" y="480" width="1200" height="150" fill="#8FA0B0"/><rect x="0" y="545" width="34" height="12" fill="#0B2D4F" opacity=".5"/><rect x="60" y="545" width="34" height="12" fill="#0B2D4F" opacity=".5"/><rect x="120" y="545" width="34" height="12" fill="#0B2D4F" opacity=".5"/><rect x="180" y="545" width="34" height="12" fill="#0B2D4F" opacity=".5"/><rect x="240" y="545" width="34" height="12" fill="#0B2D4F" opacity=".5"/><rect x="300" y="545" width="34" height="12" fill="#0B2D4F" opacity=".5"/><rect x="360" y="545" width="34" height="12" fill="#0B2D4F" opacity=".5"/><rect x="420" y="545" width="34" height="12" fill="#0B2D4F" opacity=".5"/><rect x="480" y="545" width="34" height="12" fill="#0B2D4F" opacity=".5"/><rect x="540" y="545" width="34" height="12" fill="#0B2D4F" opacity=".5"/><rect x="600" y="545" width="34" height="12" fill="#0B2D4F" opacity=".5"/><rect x="660" y="545" width="34" height="12" fill="#0B2D4F" opacity=".5"/><rect x="720" y="545" width="34" height="12" fill="#0B2D4F" opacity=".5"/><rect x="780" y="545" width="34" height="12" fill="#0B2D4F" opacity=".5"/><rect x="840" y="545" width="34" height="12" fill="#0B2D4F" opacity=".5"/><rect x="900" y="545" width="34" height="12" fill="#0B2D4F" opacity=".5"/><rect x="960" y="545" width="34" height="12" fill="#0B2D4F" opacity=".5"/><rect x="1020" y="545" width="34" height="12" fill="#0B2D4F" opacity=".5"/><rect x="1080" y="545" width="34" height="12" fill="#0B2D4F" opacity=".5"/><rect x="1140" y="545" width="34" height="12" fill="#0B2D4F" opacity=".5"/><rect x="0" y="520" width="1200" height="8" fill="#0B2D4F"/><rect x="0" y="590" width="1200" height="8" fill="#0B2D4F"/><rect x="180" y="300" width="8" height="220" fill="#0B2D4F"/><rect x="960" y="300" width="8" height="220" fill="#0B2D4F"/><path d="M184,310 L964,310" stroke="#0B2D4F" stroke-width="4"/><rect x="330" y="380" width="540" height="140" rx="14" fill="#006BB6"/><rect x="330" y="380" width="540" height="46" rx="14" fill="#fff" opacity=".92"/><rect x="360" y="440" width="56" height="44" rx="5" fill="#5DC3E7" opacity=".85"/><rect x="448" y="440" width="56" height="44" rx="5" fill="#5DC3E7" opacity=".85"/><rect x="536" y="440" width="56" height="44" rx="5" fill="#5DC3E7" opacity=".85"/><rect x="624" y="440" width="56" height="44" rx="5" fill="#5DC3E7" opacity=".85"/><rect x="712" y="440" width="56" height="44" rx="5" fill="#5DC3E7" opacity=".85"/><rect x="800" y="440" width="56" height="44" rx="5" fill="#5DC3E7" opacity=".85"/><rect x="330" y="500" width="540" height="20" fill="#0B2D4F"/><rect x="120" y="360" width="14" height="160" fill="#F5821F"/><rect x="86" y="360" width="82" height="16" rx="4" fill="#F5821F"/></svg>
