<svg xmlns="http://www.w3.org/2000/svg" viewBox="0 0 1600 900" role="img" aria-label="A headframe above the shaft, rock and scrub around it">
  <defs>
    <linearGradient id="s4" x1="0" y1="0" x2="0" y2="1">
      <stop offset="0" stop-color="#98A6B2"/>
      <stop offset="1" stop-color="#D9DEE1"/>
    </linearGradient>
  </defs>
  <rect width="1600" height="900" fill="url(#s4)"/>
  <path d="M0 520 L280 470 L600 516 L920 462 L1240 512 L1600 470 L1600 600 L0 600 Z" fill="#77817C"/>

  <!-- headframe, left of centre -->
  <g fill="#6A5A4E">
    <path d="M420 150 L500 150 L520 660 L400 660 Z"/>
    <rect x="404" y="132" width="112" height="22"/>
    <path d="M408 160 L250 660 L306 660 L444 200 Z"/>
    <path d="M512 160 L670 660 L614 660 L476 200 Z"/>
  </g>
  <g stroke="#8B7867" stroke-width="7">
    <line x1="410" y1="250" x2="510" y2="250"/><line x1="404" y1="350" x2="516" y2="350"/>
    <line x1="398" y1="450" x2="522" y2="450"/><line x1="392" y1="550" x2="528" y2="550"/>
    <line x1="410" y1="200" x2="510" y2="300"/><line x1="510" y1="200" x2="410" y2="300"/>
    <line x1="404" y1="300" x2="516" y2="400"/><line x1="516" y1="300" x2="404" y2="400"/>
  </g>
  <circle cx="460" cy="196" r="30" fill="#4E4238"/>
  <circle cx="460" cy="196" r="12" fill="#8B7867"/>

  <!-- head house and conveyor -->
  <g fill="#5F6A66">
    <rect x="620" y="520" width="300" height="140"/>
    <path d="M920 560 L1240 620 L1240 660 L920 660 Z"/>
    <rect x="1200" y="470" width="120" height="190"/>
  </g>
  <g fill="#8E5B3C" opacity=".45">
    <rect x="620" y="640" width="300" height="12"/>
    <rect x="1200" y="642" width="120" height="12"/>
  </g>

  <rect y="660" width="1600" height="240" fill="#8A7F73"/>
  <path d="M0 700 Q380 672 780 698 T1600 682 L1600 900 L0 900 Z" fill="#776C61"/>
  <g fill="#465239">
    <ellipse cx="180" cy="760" rx="80" ry="24"/><ellipse cx="1360" cy="748" rx="96" ry="26"/>
    <path d="M900 900 L946 800 L992 900 Z"/><path d="M1020 900 L1060 812 L1100 900 Z"/>
  </g>
</svg>
