<svg xmlns="http://www.w3.org/2000/svg" viewBox="0 0 1200 560">
  <!-- Queen's Park — the Ontario desk's sketch. -->
  <rect width="1200" height="560" fill="#DFE1E6"/>
  <g fill="#16264D" opacity="0.55">
    <rect x="180" y="330" width="840" height="130"/>
    <rect x="470" y="230" width="260" height="100"/>
    <path d="M470 230 a130 90 0 0 1 260 0 z"/>
    <rect x="596" y="96" width="8" height="46"/>
    <rect x="220" y="360" width="26" height="100"/><rect x="290" y="360" width="26" height="100"/><rect x="360" y="360" width="26" height="100"/>
    <rect x="814" y="360" width="26" height="100"/><rect x="884" y="360" width="26" height="100"/><rect x="954" y="360" width="26" height="100"/>
    <rect x="520" y="360" width="34" height="100"/><rect x="646" y="360" width="34" height="100"/>
    <polygon points="600,340 560,372 640,372"/>
    <rect x="120" y="460" width="960" height="14"/>
  </g>
  <g fill="#1D5138" opacity="0.35">
    <circle cx="120" cy="400" r="46"/><rect x="115" y="420" width="10" height="54"/>
    <circle cx="1080" cy="392" r="52"/><rect x="1075" y="418" width="10" height="60"/>
  </g>
</svg>
