<svg xmlns="http://www.w3.org/2000/svg" viewBox="0 320 1200 240">
  <!-- Masthead ghost: the same skyline, no ground — the chrome sets its opacity. -->
  <g fill="#16264D" opacity="1" transform="translate(0,320)">
    <rect x="16" y="188" width="6" height="52"/><circle cx="19" cy="180" r="24"/>
    <rect x="52" y="196" width="5" height="44"/><circle cx="54" cy="190" r="18"/>
    <rect x="76" y="150" width="56" height="90"/><polygon points="104,84 82,150 126,150"/><rect x="101" y="66" width="6" height="20"/>
    <rect x="146" y="176" width="58" height="64"/>
    <rect x="212" y="150" width="26" height="90"/><circle cx="225" cy="150" r="13"/>
    <rect x="252" y="120" width="70" height="120"/>
    <rect x="336" y="168" width="20" height="72"/>
    <rect x="360" y="60" width="42" height="180"/><polygon points="381,16 354,64 408,64"/>
    <circle cx="381" cy="96" r="14" fill-opacity="0.25"/><rect x="380" y="86" width="2" height="11" fill-opacity="1"/><rect x="381" y="95" width="8" height="2" fill-opacity="1"/>
    <rect x="430" y="150" width="92" height="90"/>
    <rect x="530" y="104" width="30" height="136"/>
    <rect x="572" y="160" width="88" height="80"/>
    <polygon points="686,110 668,160 704,160"/><rect x="682" y="160" width="8" height="80"/>
    <rect x="712" y="130" width="88" height="110"/>
    <rect x="810" y="172" width="50" height="68"/>
    <rect x="872" y="166" width="88" height="74"/><path d="M872 166 a44 40 0 0 1 88 0 z"/>
    <rect x="970" y="110" width="58" height="130"/>
    <rect x="1040" y="180" width="48" height="60"/>
    <rect x="1100" y="144" width="100" height="96"/>
  </g>
</svg>
